  FULL_INFOS

  100% SYNCED &gt;&gt;&gt; GUARENTEED

  Source : BluRay

  Subs : English "only" .srt
  

  Spoken Language : Arabic


  General 

Complete name : When Pigs Have Wings.2011.1080p.BluRay.x264 . NVEE.mp4 
Format : MPEG-4 
Format profile : Base Media 
Codec ID : isom 
File size : 1.64 GiB 
Duration : 1h 38mn 
Overall bit rate : 2 376 Kbps 
Encoded date : UTC 2013-04-08 03:49:39 
Tagged date : UTC 2013-04-08 03:49:39 

  Video 

ID : 1 
Format : AVC 
Format/Info : Advanced Video Codec 
Format profile : High@L4.0 
Format settings, CABAC : Yes 
Format settings, ReFrames : 4 frames 
Codec ID : avc1 
Codec ID/Info : Advanced Video Coding 
Duration : 1h 38mn 
Bit rate : 1 991 Kbps 
Maximum bit rate : 12.9 Mbps 
Width : 1 920 pixels 
Height : 1 040 pixels 
Display aspect ratio : 1.85:1 
Frame rate mode : Constant 
Frame rate : 24.000 fps 
Color space : YUV 
Chroma subsampling : 4:2:0 
Bit depth : 8 bits 
Scan type : Progressive 
Bits/(Pixel*Frame) : 0.042 
Stream size : 1.37 GiB (84%) 
Title : 2011.1080p.BluRay.x264 .264#trackID=1:fps=24@GPAC0.5.1-DEV-rev4283 
Writing library : x264 core 130 r2273 b3065e6 
Encoding settings : cabac=1 / ref=4 / deblock=1:0:0 / analyse=0x3:0x133

  Audio 

ID : 2 
Format : AC-3 
Format/Info : Audio Coding 3 
Mode extension : CM (complete main) 
Format settings, Endianness : Big 
Codec ID : ac-3 
Duration : 1h 38mn 
Bit rate mode : Constant 
Bit rate : 384 Kbps 
Channel(s) : 6 channels 
Channel positions : Front: L C R, Side: L R, LFE 
Sampling rate : 48.0 KHz 
Bit depth : 16 bits 
Compression mode : Lossy 
Stream size : 271 MiB (16%) 
Title : 2011.1080p.BluRay.x264 . NVEE - [0] Arabic_audio.ac3#trackID=1:lang=ar@GPAC0.5.1-DEV-rev4283 
Language : Arabic 
Encoded date : UTC 2013-04-08 03:54:56 
Tagged date : UTC 2013-04-08 03:56:17 


  Plot
After a storm at sea, Jafaar, a poor Palestinian fisherman, reels in a pot-bellied pig along with his usual catch. He attempts to sell the "impure" beast, but trying to profit from a pig in Gaza isn't the easiest task in the world, especially when you are confronted with highly motivated fundamentalists. Jafaar and the pig ultimately become entangled in an extraordinary chain of events and a dubious line of work, involving the nearby Jewish community.

PLEASE SEED !!

(Thank You)


